HIERARCHY
ROOT Hips
{
	OFFSET 0.000000 0.000000 0.000000
	CHANNELS 6 Xposition Yposition Zposition Xrotation Yrotation Zrotation
	JOINT LeftUpLeg_virtual
	{
		OFFSET 0.000000 0.000000 0.000000
		CHANNELS 3 Xrotation Yrotation Zrotation
		JOINT LeftUpLeg
		{
			OFFSET 11.394100 -6.187798 -0.413800
			CHANNELS 3 Xrotation Yrotation Zrotation
			JOINT LeftLeg
			{
				OFFSET 0.430247 -32.302673 3.732800
				CHANNELS 3 Xrotation Yrotation Zrotation
				JOINT LeftFoot
				{
					OFFSET -0.430247 -48.264931 -6.423300
					CHANNELS 3 Xrotation Yrotation Zrotation
					JOINT LeftToeBase
					{
						OFFSET 4.230900 -16.068199 23.438400
						CHANNELS 3 Xrotation Yrotation Zrotation
						JOINT LeftToe_End
						{
							OFFSET 4.510700 0.695400 19.974600
							CHANNELS 3 Xrotation Yrotation Zrotation
							End Site
							{
								OFFSET 0 0 0
							}
						}
					}
				}
			}
		}
	}
	JOINT RightUpLeg_virtual
	{
		OFFSET 0.000000 0.000000 0.000000
		CHANNELS 3 Xrotation Yrotation Zrotation
		JOINT RightUpLeg
		{
			OFFSET -11.333700 -6.187798 -0.413800
			CHANNELS 3 Xrotation Yrotation Zrotation
			JOINT RightLeg
			{
				OFFSET -0.430392 -32.302628 3.733000
				CHANNELS 3 Xrotation Yrotation Zrotation
				JOINT RightFoot
				{
					OFFSET 0.430392 -48.264973 -6.423500
					CHANNELS 3 Xrotation Yrotation Zrotation
					JOINT RightToeBase
					{
						OFFSET -4.230900 -16.068199 23.438400
						CHANNELS 3 Xrotation Yrotation Zrotation
						JOINT RightToe_End
						{
							OFFSET -4.510700 0.695400 19.974600
							CHANNELS 3 Xrotation Yrotation Zrotation
							End Site
							{
								OFFSET 0 0 0
							}
						}
					}
				}
			}
		}
	}
	JOINT Spine_virtual
	{
		OFFSET 0.000000 0.000000 0.000000
		CHANNELS 3 Xrotation Yrotation Zrotation
		JOINT Spine
		{
			OFFSET -0.002400 12.777504 0.315300
			CHANNELS 3 Xrotation Yrotation Zrotation
			JOINT Spine1
			{
				OFFSET -0.002067 5.816869 0.032633
				CHANNELS 3 Xrotation Yrotation Zrotation
				JOINT Spine1_split
				{
					OFFSET -0.002067 5.816869 0.032633
					CHANNELS 3 Xrotation Yrotation Zrotation
					JOINT Spine2
					{
						OFFSET -0.002067 5.816869 0.032633
						CHANNELS 3 Xrotation Yrotation Zrotation
						JOINT Neck_virtual
						{
							OFFSET 0.000000 0.000000 0.000000
							CHANNELS 3 Xrotation Yrotation Zrotation
							JOINT Neck
							{
								OFFSET -0.003700 21.199493 -0.826900
								CHANNELS 3 Xrotation Yrotation Zrotation
								JOINT Head
								{
									OFFSET 0.000000 20.442200 4.834800
									CHANNELS 3 Xrotation Yrotation Zrotation
									JOINT HeadTop_End
									{
										OFFSET 0.000000 34.668396 4.968400
										CHANNELS 3 Xrotation Yrotation Zrotation
										End Site
										{
											OFFSET 0 0 0
										}
									}
								}
							}
						}
						JOINT LeftShoulder_virtual
						{
							OFFSET 0.000000 0.000000 0.000000
							CHANNELS 3 Xrotation Yrotation Zrotation
							JOINT LeftShoulder
							{
								OFFSET 3.288150 8.794197 -1.372250
								CHANNELS 3 Xrotation Yrotation Zrotation
								JOINT LeftShoulder_split
								{
									OFFSET 3.288150 8.794197 -1.372250
									CHANNELS 3 Xrotation Yrotation Zrotation
									JOINT LeftArm
									{
										OFFSET 11.953299 -2.279007 -0.146200
										CHANNELS 3 Xrotation Yrotation Zrotation
										JOINT LeftForeArm
										{
											OFFSET 18.448900 0.000000 0.000000
											CHANNELS 3 Xrotation Yrotation Zrotation
											JOINT LeftHand
											{
												OFFSET 29.527798 0.000000 0.000000
												CHANNELS 3 Xrotation Yrotation Zrotation
												End Site
												{
													OFFSET 0 0 0
												}
											}
										}
									}
								}
							}
						}
						JOINT RightShoulder_virtual
						{
							OFFSET 0.000000 0.000000 0.000000
							CHANNELS 3 Xrotation Yrotation Zrotation
							JOINT RightShoulder
							{
								OFFSET -3.249400 8.794197 -1.372250
								CHANNELS 3 Xrotation Yrotation Zrotation
								JOINT RightShoulder_split
								{
									OFFSET -3.249400 8.794197 -1.372250
									CHANNELS 3 Xrotation Yrotation Zrotation
									JOINT RightArm
									{
										OFFSET -11.953299 -2.279007 -0.146200
										CHANNELS 3 Xrotation Yrotation Zrotation
										JOINT RightForeArm
										{
											OFFSET -18.448900 0.000000 0.000000
											CHANNELS 3 Xrotation Yrotation Zrotation
											JOINT RightHand
											{
												OFFSET -29.527802 0.000000 0.000000
												CHANNELS 3 Xrotation Yrotation Zrotation
												End Site
												{
													OFFSET 0 0 0
												}
											}
										}
									}
								}
							}
						}
					}
				}
			}
		}
	}
}
MOTION
Frames: 4
Frame Time: 0.03333333
-5.058912 93.921257 48.500137 0.000000 0.000000 0.000000 27.545552 3.694330 -14.914929 -75.518861 -5.053618 15.124721 39.931584 7.704115 -8.340349 14.594910 -0.979745 9.538826 -1.330211 0.454967 -0.463247 0.000000 0.000000 0.000000 27.616997 8.161589 -16.305999 -10.811232 -20.792059 -19.155050 82.414422 0.245859 -4.381621 39.608486 0.087537 9.528473 20.037799 0.092258 2.088649 0.000000 0.000000 0.000000 26.791979 6.879557 -16.411688 6.363661 13.299155 -10.204048 12.332441 11.686605 -7.278568 1.756957 1.952627 0.254995 0.000000 0.000000 0.000000 12.049009 11.037113 -7.568964 -10.938269 -7.321296 7.522767 -26.045361 -31.835211 19.446834 0.000000 0.000000 0.000000 11.603297 11.767336 -7.590259 0.079961 5.340915 4.397177 -3.502934 0.179726 -0.907771 31.859271 -41.397514 -15.419157 0.358012 -29.508787 -0.619670 0.000000 0.000000 0.000000 11.857525 11.082595 -8.073109 5.340996 14.410757 -6.526335 0.128308 4.725356 -0.666958 -18.080904 57.603985 33.536567 -1.945441 41.079688 -0.278849 0.000000 0.000000 0.000000 
-5.138120 93.611938 49.231804 0.000000 0.000000 0.000000 25.722465 4.682751 -14.182644 -73.837364 -4.024115 14.827772 41.075170 7.743402 -8.909032 12.168606 -0.821599 10.045425 -1.072563 0.385707 -0.158978 0.000000 0.000000 0.000000 25.631193 8.584809 -15.400060 -12.658822 -21.168189 -18.029992 78.389569 1.116303 -4.235887 37.467372 -0.626854 6.545767 19.389794 -0.223085 2.862257 0.000000 0.000000 0.000000 24.646992 7.483035 -15.681739 6.155319 12.012294 -10.561633 12.773601 10.790789 -7.411098 1.445043 2.096407 0.207183 0.000000 0.000000 0.000000 12.280618 10.276003 -7.704161 -11.064289 -7.071837 7.130051 -26.080994 -31.433234 20.026055 0.000000 0.000000 0.000000 11.663800 11.056770 -7.699895 0.183061 4.872248 5.350831 -3.564446 -0.921217 -1.632424 30.055506 -43.753423 -7.978314 0.544341 -27.649511 -0.425645 0.000000 0.000000 0.000000 12.075048 10.378554 -8.102995 5.063144 13.726782 -5.542641 0.654080 3.656890 -0.363721 -17.068296 53.723133 27.010538 -1.932420 39.779363 -0.023655 0.000000 0.000000 0.000000 
-5.054377 93.501427 50.027065 0.000000 0.000000 0.000000 23.970621 5.717390 -13.637011 -71.822069 -2.735150 14.509502 41.785110 7.578771 -9.281372 9.845701 -0.760324 10.609679 -0.942098 0.346831 -0.012895 0.000000 0.000000 0.000000 23.625658 9.330231 -14.807101 -13.966711 -21.865230 -16.870755 73.584927 1.993218 -4.225894 34.828313 -1.188917 2.982789 18.504010 -0.373239 3.415248 0.000000 0.000000 0.000000 22.518946 8.219188 -15.208132 5.988286 10.697670 -10.827948 13.206985 9.617596 -7.528410 1.254719 2.100337 0.101949 0.000000 0.000000 0.000000 12.580961 9.242411 -7.854868 -11.198490 -6.917584 6.746360 -25.713951 -30.806339 20.757406 0.000000 0.000000 0.000000 11.832650 10.029925 -7.799165 0.285483 4.252559 6.170247 -3.477115 -1.785747 -2.250528 26.694826 -46.846980 -2.075900 0.684214 -25.121612 -0.136323 0.000000 0.000000 0.000000 12.444346 9.400492 -8.145949 4.972183 13.222635 -5.644652 0.946348 2.529589 -0.230654 -16.707698 50.540770 21.870887 -1.873669 37.338288 0.209124 0.000000 0.000000 0.000000 
-4.824329 93.664749 50.943966 0.000000 0.000000 0.000000 22.146251 6.831597 -13.337675 -69.458816 -1.343641 14.368667 42.217351 7.029331 -9.402667 7.996956 -0.866210 11.065823 -1.153859 0.332979 0.019249 0.000000 0.000000 0.000000 21.573108 10.282708 -14.486527 -15.349325 -22.700907 -16.093708 68.136321 3.138485 -4.506856 32.840472 -0.976432 0.245280 15.657519 -0.478694 3.391988 0.000000 0.000000 0.000000 20.445329 9.074377 -15.020056 5.889974 9.197060 -11.016877 13.642249 8.073008 -7.551238 1.231470 2.072751 -0.014745 0.000000 0.000000 0.000000 12.949537 7.811955 -7.915496 -11.252164 -6.789755 6.418374 -24.884245 -29.707020 21.643073 0.000000 0.000000 0.000000 12.148675 8.576781 -7.824550 0.372398 3.515852 6.795905 -3.438953 -2.121141 -2.600923 21.271108 -50.257700 1.563416 0.698464 -21.995817 0.187808 0.000000 0.000000 0.000000 12.927584 8.014950 -8.117799 5.035006 12.847027 -6.805689 1.020008 1.646798 -0.320343 -16.374596 48.061152 17.402053 -1.746503 34.796235 0.340399 0.000000 0.000000 0.000000 
